<?xml version="1.0" encoding="UTF-8"?>
<svg xmlns="http://www.w3.org/2000/svg" xmlns:xlink="http://www.w3.org/1999/xlink" viewBox="0 0 535.3 482.77">
  <defs>
    <style>
      .cls-1 {
        isolation: isolate;
      }

      .cls-2 {
        fill: #fff;
        opacity: .8;
      }

      .cls-2, .cls-3, .cls-4, .cls-5 {
        stroke-width: 0px;
      }

      .cls-3 {
        fill: none;
      }

      .cls-4 {
        fill: #0055b8;
      }

      .cls-6 {
        clip-path: url(#clippath);
      }

      .cls-5 {
        fill: url(#radial-gradient);
      }

      .cls-7, .cls-8 {
        mix-blend-mode: multiply;
      }

      .cls-8 {
        opacity: .43;
      }
    </style>
    <clipPath id="clippath">
      <circle class="cls-3" cx="267.65" cy="243.03" r="211.77" transform="translate(21.03 507.37) rotate(-89.23)"/>
    </clipPath>
    <radialGradient id="radial-gradient" cx="280.97" cy="259.36" fx="280.97" fy="259.36" r="239.78" gradientUnits="userSpaceOnUse">
      <stop offset=".49" stop-color="#fff"/>
      <stop offset=".63" stop-color="#fcfcfc"/>
      <stop offset=".7" stop-color="#f5f5f5"/>
      <stop offset=".75" stop-color="#e8e8e8"/>
      <stop offset=".79" stop-color="#d6d6d6"/>
      <stop offset=".83" stop-color="#bebebe"/>
      <stop offset=".86" stop-color="#a1a1a1"/>
      <stop offset=".89" stop-color="#7e7e7e"/>
      <stop offset=".92" stop-color="#575757"/>
      <stop offset=".92" stop-color="#545454"/>
    </radialGradient>
  </defs>
  <g class="cls-1">
    <g id="Layer_1" data-name="Layer 1">
      <g>
        <circle class="cls-2" cx="267.67" cy="244.98" r="210.33"/>
        <g class="cls-8">
          <g class="cls-6">
            <rect class="cls-5" x="25.53" y="-1.51" width="491.94" height="491.94"/>
            <rect class="cls-5" x="25.53" y="-1.51" width="491.94" height="491.94"/>
            <rect class="cls-5" x="25.53" y="-1.51" width="491.94" height="491.94"/>
          </g>
        </g>
        <g class="cls-7">
          <path class="cls-4" d="m184.27,293.4c-10.12,2.76-20.11,4.99-30.01,4.99-23.71,0-44.84-11.75-44.84-37.85,0-27.65,20.45-41.73,46.42-41.73,9.66,0,18.66,2,27.09,6.76-1.59,3.55-2.7,7.45-3.16,11.21h-1.58c-5.16-7.44-13.25-11.33-22.14-11.33-18.77,0-27.99,16.77-27.99,35.41s9.9,30.85,26.99,30.85c5.62,0,9.66-1.54,12.36-3.1v-25.97c2.81.22,5.62.57,8.43.57s5.62-.34,8.43-.57v30.76Zm16.32,3.56c2.81-.22,5.61-.57,8.42-.57s5.62.35,8.44.57v-35.65h.78c2.48,4.22,5.63,9.34,7.31,12.32l13.38,23.33c3.38-.22,6.73-.57,10.11-.57s6.86.35,10.24.57l-4.4-6.9c-6.73-10.33-13.7-20.52-19.88-31.17,10.43-2.24,17.53-9.14,17.53-19.99,0-7.55-3.38-12.56-9.77-15.88-4.73-2.42-12.93-2.2-18.21-2.2h-23.95v76.15Zm16.86-70.16c6.85,0,15.28-.9,17.08,8.31.46,2.35.56,4,.56,5.56,0,11.45-5.83,17-17.64,15.88v-29.75Zm53.62,70.16c2.82-.22,5.61-.57,8.43-.57s5.63.35,8.44.57v-76.15c-2.81.22-5.62.54-8.44.54s-5.61-.32-8.43-.54v76.15Zm72.61-61.85c1.12-3.77,2.25-7.44,3.59-10.99-2.46-2.33-9.66-5.31-17.75-5.31-17.09,0-25.97,10.53-25.97,23.31,0,26.75,33.5,20.3,33.5,38.06,0,7.65-6.17,11.54-13.14,11.54-7.75,0-13.83-4.54-15.51-12.21h-2.14c-.67,4.78-1.9,9.45-3.27,14.12,5.29,3.34,11.93,4.77,18.11,4.77,17.42,0,29.78-10.2,29.78-24.43,0-25.42-34.17-22.64-34.17-37.62,0-6.33,3.5-10.89,12.38-10.89,6.39,0,10.67,3.78,12.93,9.66h1.68Zm21.04,61.85c2.79-.22,5.62-.57,8.42-.57s5.64.35,8.43.57v-76.15c-2.79.22-5.63.54-8.43.54s-5.63-.32-8.42-.54v76.15Zm-226.94,16.65c-2.54-.48-5.15-.76-7.7-.76-8.1,0-10.56,3.79-10.38,7,.33,5.88,9.06,8.25,9.19,10.58.06,1.09-2.02,1.09-2.93,1.09-2.32,0-4.75-.73-6.88-1.46l1.11,7.34c2.69.36,5.46.73,8.22.73,8.65,0,10.97-4.12,10.77-7.63-.28-5.1-9.04-7.73-9.16-9.93-.06-1.1,2.02-1.13,2.81-1.13,1.97,0,4.11.51,5.92,1.21l-.98-7.04Zm28.31-.29h-23.26c.47,6.24.32,19.85-.14,24.35h23.3l.1-6.72c-3.64.18-6.58.33-13.11.33l.05-2.59h10.65l.07-6.54c-2.16.03-4.35.15-6.51.15h-4.05l.05-2.59h5.42c2.48,0,4.91.04,7.4.15l.03-6.53Zm-14.52-1.87h7.58l3.79-3.83h-9.59l-1.79,3.83Zm42.87,26.21c-.32-6.39-.22-10.95-.27-13.32h.08c2.33,4.38,5.21,8.87,7.97,13.32h11.75c-.22-8.11-.12-16.24.22-24.35h-9.28c.22,4.64.28,9.23.21,13.65h-.08c-2.41-4.49-5.02-9.09-7.79-13.65h-12.03c.5,8.83.2,19.78-.1,24.35h9.31Zm43.73-5.62c.81,1.86,1.62,3.72,2.24,5.62h10.77c-3.86-8.03-7.54-16.17-11.02-24.35h-12.22c-3.08,6.79-9.63,19.12-12.67,24.35h11.2l2.4-5.62h9.31Zm-6.83-6.21l2.5-5.88.07-.07,2.26,5.95h-4.83Zm40.33-12.52h-26.4l.13,6.61c1.29-.07,2.07-.22,8.12-.22.3,6.06.24,12-.18,17.96h10.41c-.3-7.48-.32-12.74-.09-17.96,3.65,0,5.74.07,8.11.22l-.09-6.61Zm3.69,0c.25,7.92-.25,13.98-.04,17.7.2,3.58,3.7,7.12,13.83,7.12,12.81,0,13.85-5.99,13.74-8.65-.17-5.14.15-15.7.16-16.17h-10.41c.06,2.59.28,10.08-.28,14.78-.27,2.23-.93,3.1-3.52,3.1-2.43,0-3.32-1.71-3.44-4.01-.21-3.76.15-9.23.17-13.87h-10.21Zm44.55,6.21c2.04,0,4.32-.04,4.43,1.9.11,2.08-2.21,2.59-4.06,2.59-.55,0-1.14-.04-1.7-.15,1.63,4.56,3.03,9.16,4.42,13.8h10.72c-1.49-3.47-3.13-6.9-4.51-10.44,3.3-1.39,5.02-3.72,4.83-7.15-.35-6.35-7.25-6.75-10.55-6.75h-15.68c.45,8.14.67,16.28.02,24.35h10.02c-.26-6.02-.4-12.08-.3-18.14h2.36Zm36.06,12.52c.81,1.86,1.62,3.72,2.24,5.62h10.77c-3.87-8.03-7.54-16.17-11.02-24.35h-12.22c-3.08,6.79-9.62,19.12-12.67,24.35h11.2l2.4-5.62h9.31Zm-6.83-6.21l2.5-5.88.08-.07,2.26,5.95h-4.84Zm43.13,5.29c-2.55.07-5.1.15-7.66.15h-4.01c-.2-4.38-.02-15.14.1-17.96h-10.49c.37,8.14.31,16.28-.3,24.35h22.2l.15-6.54Zm-114.5-212.48c0-6.88-5.58-12.45-12.45-12.45s-12.45,5.57-12.45,12.45,5.57,12.44,12.45,12.44,12.45-5.57,12.45-12.44m30.44,0c0-6.88-5.56-12.45-12.44-12.45s-12.45,5.57-12.45,12.45,5.57,12.44,12.45,12.44,12.44-5.57,12.44-12.44m-45.77,25.93c0-6.88-5.57-12.45-12.44-12.45s-12.45,5.57-12.45,12.45,5.57,12.45,12.45,12.45,12.44-5.58,12.44-12.45m30.44,0c0-6.88-5.57-12.45-12.44-12.45s-12.44,5.57-12.44,12.45,5.57,12.45,12.44,12.45,12.44-5.58,12.44-12.45m30.46,0c0-6.88-5.57-12.45-12.45-12.45s-12.45,5.57-12.45,12.45,5.58,12.45,12.45,12.45,12.45-5.58,12.45-12.45m-60.9,51.73c0-6.87-5.57-12.44-12.44-12.44s-12.45,5.57-12.45,12.44,5.57,12.45,12.45,12.45,12.44-5.57,12.44-12.45m30.44,0c0-6.87-5.57-12.44-12.44-12.44s-12.44,5.57-12.44,12.44,5.57,12.45,12.44,12.45,12.44-5.57,12.44-12.45m30.46,0c0-6.87-5.57-12.44-12.45-12.44s-12.45,5.57-12.45,12.44,5.58,12.45,12.45,12.45,12.45-5.57,12.45-12.45m-75.2-26.45c0-6.87-5.56-12.44-12.44-12.44s-12.44,5.57-12.44,12.44,5.57,12.45,12.44,12.45,12.44-5.58,12.44-12.45m30.45,0c0-6.87-5.57-12.44-12.44-12.44s-12.44,5.57-12.44,12.44,5.56,12.45,12.44,12.45,12.44-5.58,12.44-12.45m30.45,0c0-6.87-5.57-12.44-12.44-12.44s-12.45,5.57-12.45,12.44,5.58,12.45,12.45,12.45,12.44-5.58,12.44-12.45m30.45,0c0-6.87-5.57-12.44-12.44-12.44s-12.44,5.57-12.44,12.44,5.56,12.45,12.44,12.45,12.44-5.58,12.44-12.45m52.78,114.47c0-8.04,6.17-14.59,13.76-14.59s13.75,6.55,13.75,14.59-6.17,14.6-13.75,14.6-13.76-6.55-13.76-14.6m1.2,0c0,7.34,5.63,13.33,12.56,13.33s12.56-5.98,12.56-13.33-5.64-13.31-12.56-13.31-12.56,5.97-12.56,13.31m12.79-4.87h-2.87l-1.69,7.35h-.03l-1.72-7.35h-2.89v9.32h1.85v-7.79h.03l1.73,7.79h1.94l1.77-7.79h.02v7.79h1.85v-9.32Zm.81,9.33h1.95v-3.65h2.05c1.47,0,1.55.5,1.55,1.77,0,.96.08,1.44.21,1.88h2.19v-.25c-.42-.15-.42-.49-.42-1.85,0-1.74-.42-2.03-1.2-2.37.94-.31,1.47-1.19,1.47-2.22,0-.8-.46-2.64-2.99-2.64h-4.8v9.32Zm1.95-5.22v-2.49h2.47c1.16,0,1.39.73,1.39,1.22,0,.92-.5,1.27-1.53,1.27h-2.32Z"/>
        </g>
      </g>
    </g>
  </g>
</svg>